<?xml version="1.0" encoding="UTF-8" standalone="no"?><!DOCTYPE svg PUBLIC "-//W3C//DTD SVG 1.1//EN" "http://www.w3.org/Graphics/SVG/1.1/DTD/svg11.dtd"><svg width="100%" height="100%" viewBox="0 0 878 878" version="1.1" xmlns="http://www.w3.org/2000/svg" xmlns:xlink="http://www.w3.org/1999/xlink" xml:space="preserve" xmlns:serif="http://www.serif.com/" style="fill-rule:evenodd;clip-rule:evenodd;stroke-linejoin:round;stroke-miterlimit:2;"><path d="M486.102,610.114c147.584,-13.219 260.752,-87.59 260.752,-177.238c0,-94.513 -125.788,-172.047 -285.077,-178.842l-14.873,-94.225c214.288,2.91 386.96,124.15 386.96,273.067c-0,150.74 -176.925,273.121 -394.846,273.121c-217.922,-0 -394.847,-122.381 -394.847,-273.121c0,-148.91 172.656,-270.146 386.93,-273.067l-14.957,94.23c-159.236,6.827 -284.963,84.346 -284.963,178.837c-0,89.641 113.152,164.008 260.72,177.235l0.626,-55.921c-0.624,-0.598 -30.617,-4.795 -35.29,-5.848c-44.992,-10.133 -88.671,-28.943 -124.683,-58.037c-8.145,-6.581 -17.301,-14.307 -22.882,-23.255c-19.766,-31.688 1.497,-67.811 29.9,-85.201c1.781,0.847 3.39,2.913 4.81,4.297l9.721,9.082c30.908,26.317 69.232,44.87 108.062,55.916l20.532,5.189c2.982,0.653 6.052,0.833 8.972,1.72l47.332,-298.178l0.004,0.002l47.161,298.776c1.404,-0.835 3.313,-1.007 4.904,-1.387l31.978,-8.34c44.854,-13.394 80.977,-34.48 114.116,-66.829l1.072,0.537c3.083,1.492 5.58,3.363 8.25,5.498c51.51,41.202 29.349,82.13 -18.074,114.98c-41.206,28.542 -93.245,46.273 -142.936,51.078l0.626,55.924Z"/></svg>